<svg width="32" height="32" viewBox="0 0 32 32" fill="none" xmlns="http://www.w3.org/2000/svg">
  <rect width="32" height="32" rx="16" fill="#1E40AF"/>
  <path d="M23 12H21V10C21 9.46957 20.7893 8.96086 20.4142 8.58579C20.0391 8.21071 19.5304 8 19 8H9C8.46957 8 7.96086 8.21071 7.58579 8.58579C7.21071 8.96086 7 9.46957 7 10V22C7 22.5304 7.21071 23.0391 7.58579 23.4142C7.96086 23.7893 8.46957 24 9 24H23C23.5304 24 24.0391 23.7893 24.4142 23.4142C24.7893 23.0391 25 22.5304 25 22V14C25 13.4696 24.7893 12.9609 24.4142 12.5858C24.0391 12.2107 23.5304 12 23 12ZM9 10H19V12H9V10ZM19 19H17V21H15V19H13V17H15V15H17V17H19V19ZM23 20H21V18H23V20Z" fill="white"/>
</svg>
