<svg width="32" height="32" viewBox="0 0 32 32" fill="none" xmlns="http://www.w3.org/2000/svg">
  <path d="M27.5821 3L17.5347 10.545L19.4866 6.03949L27.5821 3Z" fill="#E17726" stroke="#E17726" stroke-width="0.25" stroke-linecap="round" stroke-linejoin="round"/>
  <path d="M4.41467 3L14.353 10.6241L12.5134 6.03949L4.41467 3Z" fill="#E27625" stroke="#E27625" stroke-width="0.25" stroke-linecap="round" stroke-linejoin="round"/>
  <path d="M23.8652 21.2271L21.0391 25.4755L26.9437 27.1177L28.6259 21.3288L23.8652 21.2271Z" fill="#E27625" stroke="#E27625" stroke-width="0.25" stroke-linecap="round" stroke-linejoin="round"/>
  <path d="M3.38867 21.3288L5.05648 27.1177L10.9478 25.4755L8.13504 21.2271L3.38867 21.3288Z" fill="#E27625" stroke="#E27625" stroke-width="0.25" stroke-linecap="round" stroke-linejoin="round"/>
  <path d="M10.604 13.8919L8.95703 16.3781L14.7962 16.6498L14.5887 10.2607L10.604 13.8919Z" fill="#E27625" stroke="#E27625" stroke-width="0.25" stroke-linecap="round" stroke-linejoin="round"/>
  <path d="M21.396 13.8915L17.3571 10.1807L17.1963 16.6493L23.0355 16.3777L21.396 13.8915Z" fill="#E27625" stroke="#E27625" stroke-width="0.25" stroke-linecap="round" stroke-linejoin="round"/>
  <path d="M10.948 25.4755L14.4264 23.72L11.4326 21.3705L10.948 25.4755Z" fill="#E27625" stroke="#E27625" stroke-width="0.25" stroke-linecap="round" stroke-linejoin="round"/>
  <path d="M17.5732 23.72L21.0391 25.4755L20.5671 21.3705L17.5732 23.72Z" fill="#E27625" stroke="#E27625" stroke-width="0.25" stroke-linecap="round" stroke-linejoin="round"/>
  <path d="M21.0391 25.4757L17.5732 23.7202L17.8624 26.0517L17.8349 27.0387L21.0391 25.4757Z" fill="#D5BFB2" stroke="#D5BFB2" stroke-width="0.25" stroke-linecap="round" stroke-linejoin="round"/>
  <path d="M10.948 25.4757L14.1647 27.0387L14.1506 26.0517L14.4264 23.7202L10.948 25.4757Z" fill="#D5BFB2" stroke="#D5BFB2" stroke-width="0.25" stroke-linecap="round" stroke-linejoin="round"/>
  <path d="M14.2258 19.8452L11.3496 18.9467L13.3857 17.9597L14.2258 19.8452Z" fill="#233447" stroke="#233447" stroke-width="0.25" stroke-linecap="round" stroke-linejoin="round"/>
  <path d="M17.7744 19.8452L18.6145 17.9597L20.6644 18.9467L17.7744 19.8452Z" fill="#233447" stroke="#233447" stroke-width="0.25" stroke-linecap="round" stroke-linejoin="round"/>
  <path d="M10.9478 25.4755L11.453 21.2271L8.13574 21.3288L10.9478 25.4755Z" fill="#CC6228" stroke="#CC6228" stroke-width="0.25" stroke-linecap="round" stroke-linejoin="round"/>
  <path d="M20.5469 21.2271L21.0388 25.4755L23.8651 21.3288L20.5469 21.2271Z" fill="#CC6228" stroke="#CC6228" stroke-width="0.25" stroke-linecap="round" stroke-linejoin="round"/>
  <path d="M23.0356 16.3777L17.1963 16.6493L17.7742 19.845L18.6143 17.9595L20.6641 18.9465L23.0356 16.3777Z" fill="#CC6228" stroke="#CC6228" stroke-width="0.25" stroke-linecap="round" stroke-linejoin="round"/>
  <path d="M11.3496 18.9465L13.3855 17.9595L14.2256 19.845L14.7964 16.6493L8.95703 16.3777L11.3496 18.9465Z" fill="#CC6228" stroke="#CC6228" stroke-width="0.25" stroke-linecap="round" stroke-linejoin="round"/>
  <path d="M8.95703 16.3777L11.4328 21.3705L11.3496 18.9465L8.95703 16.3777Z" fill="#E27525" stroke="#E27525" stroke-width="0.25" stroke-linecap="round" stroke-linejoin="round"/>
  <path d="M20.6641 18.9465L20.5671 21.3705L23.0358 16.3777L20.6641 18.9465Z" fill="#E27525" stroke="#E27525" stroke-width="0.25" stroke-linecap="round" stroke-linejoin="round"/>
  <path d="M14.7961 16.6493L14.2253 19.845L14.936 23.4763L15.1203 18.6746L14.7961 16.6493Z" fill="#E27525" stroke="#E27525" stroke-width="0.25" stroke-linecap="round" stroke-linejoin="round"/>
  <path d="M17.1959 16.6493L16.8848 18.6614L17.0636 23.4763L17.774 19.845L17.1959 16.6493Z" fill="#E27525" stroke="#E27525" stroke-width="0.25" stroke-linecap="round" stroke-linejoin="round"/>
  <path d="M17.7743 19.845L17.0639 23.4763L17.5734 23.72L20.5674 21.3705L20.6644 18.9465L17.7743 19.845Z" fill="#F5841F" stroke="#F5841F" stroke-width="0.25" stroke-linecap="round" stroke-linejoin="round"/>
  <path d="M11.3496 18.9465L11.4326 21.3705L14.4265 23.72L14.936 23.4763L14.2256 19.845L11.3496 18.9465Z" fill="#F5841F" stroke="#F5841F" stroke-width="0.25" stroke-linecap="round" stroke-linejoin="round"/>
  <path d="M17.8346 27.0387L17.8621 26.0517L17.5937 25.8246H14.3928L14.1505 26.0517L14.1647 27.0387L10.948 25.4757L12.0696 26.3873L14.351 27.9998H17.6354L19.9306 26.3873L21.038 25.4757L17.8346 27.0387Z" fill="#C0AC9D" stroke="#C0AC9D" stroke-width="0.25" stroke-linecap="round" stroke-linejoin="round"/>
  <path d="M17.5734 23.72L17.0639 23.4763H14.936L14.4265 23.72L14.1506 26.0517L14.3929 25.8245H17.5939L17.8622 26.0517L17.5734 23.72Z" fill="#161616" stroke="#161616" stroke-width="0.25" stroke-linecap="round" stroke-linejoin="round"/>
  <path d="M27.9756 11.3255L28.8441 7.02568L27.5823 3L17.5732 10.3633L21.3961 13.8915L26.8068 15.4676L27.9619 14.0991L27.4496 13.7395L28.2347 13.0204L27.6131 12.5504L28.3981 11.9463L27.9756 11.3255Z" fill="#763E1A" stroke="#763E1A" stroke-width="0.25" stroke-linecap="round" stroke-linejoin="round"/>
  <path d="M3.15625 7.02568L4.03908 11.3255L3.58795 11.9463L4.38721 12.5504L3.76555 13.0204L4.55069 13.7395L4.03836 14.0991L5.19344 15.4676L10.6042 13.8915L14.427 10.3633L4.4179 3L3.15625 7.02568Z" fill="#763E1A" stroke="#763E1A" stroke-width="0.25" stroke-linecap="round" stroke-linejoin="round"/>
  <path d="M26.8067 15.4676L21.3961 13.8915L23.0356 16.3777L20.5669 21.3705L23.8648 21.3288H28.6254L26.8067 15.4676Z" fill="#F5841F" stroke="#F5841F" stroke-width="0.25" stroke-linecap="round" stroke-linejoin="round"/>
  <path d="M10.6043 13.8915L5.19348 15.4676L3.38867 21.3288H8.13504L11.4328 21.3705L8.9573 16.3777L10.6043 13.8915Z" fill="#F5841F" stroke="#F5841F" stroke-width="0.25" stroke-linecap="round" stroke-linejoin="round"/>
  <path d="M17.1965 16.6493L17.5733 10.3633L19.4867 6.03949H12.5137L14.427 10.3633L14.7968 16.6493L14.9278 18.6878L14.936 23.4763H17.0639L17.0722 18.6878L17.1965 16.6493Z" fill="#F5841F" stroke="#F5841F" stroke-width="0.25" stroke-linecap="round" stroke-linejoin="round"/>
</svg>
