<svg width="32" height="32" viewBox="0 0 32 32" fill="none" xmlns="http://www.w3.org/2000/svg">
  <rect width="32" height="32" rx="16" fill="#12FF80"/>
  <path d="M24 10.6667H21.3333V8.00001C21.3333 7.64638 21.1929 7.30724 20.9428 7.05719C20.6928 6.80715 20.3536 6.66667 20 6.66667H8.00001C7.64638 6.66667 7.30724 6.80715 7.05719 7.05719C6.80715 7.30724 6.66667 7.64638 6.66667 8.00001V24C6.66667 24.3536 6.80715 24.6928 7.05719 24.9428C7.30724 25.1929 7.64638 25.3333 8.00001 25.3333H24C24.3536 25.3333 24.6928 25.1929 24.9428 24.9428C25.1929 24.6928 25.3333 24.3536 25.3333 24V12C25.3333 11.6464 25.1929 11.3072 24.9428 11.0572C24.6928 10.8071 24.3536 10.6667 24 10.6667ZM9.33334 9.33334H18.6667V10.6667H9.33334V9.33334ZM16 20H14.6667V21.3333H13.3333V20H12V18.6667H13.3333V17.3333H14.6667V18.6667H16V20ZM22.6667 21.3333H20V20H22.6667V21.3333ZM22.6667 17.3333H20V16H22.6667V17.3333Z" fill="#001E2B"/>
</svg>
