<svg width="32" height="32" viewBox="0 0 32 32" fill="none" xmlns="http://www.w3.org/2000/svg">
  <path d="M16 32C24.8366 32 32 24.8366 32 16C32 7.16344 24.8366 0 16 0C7.16344 0 0 7.16344 0 16C0 24.8366 7.16344 32 16 32Z" fill="#3B99FC"/>
  <path d="M10.5813 13.2899C13.5813 10.3312 18.4187 10.3312 21.4187 13.2899L21.8188 13.6846C22.0625 13.9256 22.0625 14.3203 21.8188 14.5614L20.7125 15.6507C20.5906 15.7712 20.3938 15.7712 20.2719 15.6507L19.7094 15.0942C17.6656 13.0748 14.3344 13.0748 12.2906 15.0942L11.6969 15.6817C11.575 15.8022 11.3781 15.8022 11.2562 15.6817L10.15 14.5923C9.90625 14.3513 9.90625 13.9566 10.15 13.7155L10.5813 13.2899ZM24.0532 15.8951L25.0375 16.8635C25.2812 17.1045 25.2812 17.4992 25.0375 17.7402L19.7063 22.9949C19.4625 23.236 19.0688 23.236 18.825 22.9949L15.0844 19.3168C15.0234 19.2566 14.9297 19.2566 14.8688 19.3168L11.1281 22.9949C10.8844 23.236 10.4906 23.236 10.2469 22.9949L4.9125 17.7402C4.66875 17.4992 4.66875 17.1045 4.9125 16.8635L5.89687 15.8951C6.14062 15.654 6.53437 15.654 6.77812 15.8951L10.5188 19.5731C10.5797 19.6333 10.6734 19.6333 10.7344 19.5731L14.475 15.8951C14.7188 15.654 15.1125 15.654 15.3562 15.8951L19.0969 19.5731C19.1578 19.6333 19.2516 19.6333 19.3125 19.5731L23.0532 15.8951C23.2969 15.654 23.6907 15.654 23.9344 15.8951H24.0532Z" fill="white"/>
</svg>
